<?xml version="1.0" standalone="no"?>
<!DOCTYPE svg PUBLIC "-//W3C//DTD SVG 20010904//EN"
 "http://www.w3.org/TR/2001/REC-SVG-20010904/DTD/svg10.dtd">
<svg version="1.0" xmlns="http://www.w3.org/2000/svg"
 width="647.000000pt" height="647.000000pt" viewBox="0 0 647.000000 647.000000"
 preserveAspectRatio="xMidYMid meet">
<metadata>
Created by potrace 1.14, written by Peter Selinger 2001-2017
</metadata>
<g transform="translate(0.000000,647.000000) scale(0.100000,-0.100000)"
fill="#000000" stroke="none">
<path d="M3608 5925 c-2 -2 -41 -6 -88 -10 -149 -12 -189 -17 -292 -39 -16 -3
-40 -8 -55 -12 -317 -63 -679 -223 -975 -429 -24 -16 -45 -32 -48 -35 -3 -3
-21 -17 -40 -30 -114 -79 -365 -326 -463 -455 -4 -5 -19 -23 -33 -40 -14 -16
-32 -42 -40 -57 -8 -16 -19 -28 -24 -28 -6 0 -10 -4 -10 -8 0 -5 -26 -49 -59
-98 -56 -86 -153 -265 -198 -369 -49 -113 -122 -320 -138 -393 -10 -44 -13
-58 -23 -97 -6 -22 -13 -56 -16 -75 -3 -19 -8 -47 -11 -62 -12 -68 -15 -87
-20 -143 -10 -102 -8 -99 -87 -132 -67 -28 -182 -60 -218 -61 -8 -1 -28 -3
-45 -6 -31 -6 -252 -16 -404 -18 l-84 -2 29 -23 c32 -26 170 -95 224 -111 33
-11 54 -15 125 -29 17 -3 37 -7 45 -8 8 -2 27 -4 43 -4 32 -1 36 -17 5 -27
-12 -3 -51 -20 -87 -37 -37 -17 -68 -31 -71 -31 -14 -2 -105 -52 -108 -58 -2
-5 -9 -8 -16 -8 -6 0 -35 -16 -65 -35 -29 -19 -55 -35 -57 -35 -5 0 -116 -80
-124 -89 -3 -4 -21 -18 -40 -33 -19 -14 -60 -49 -90 -77 -51 -48 -52 -50 -25
-45 17 2 55 12 85 20 30 9 66 18 80 21 14 2 50 10 80 18 30 8 71 17 90 20 19
3 42 8 50 10 8 2 31 6 50 9 19 3 46 8 60 11 14 3 54 8 90 11 36 3 82 7 103 9
50 5 42 -4 -35 -40 -35 -17 -69 -36 -76 -42 -7 -7 -18 -13 -23 -13 -5 0 -46
-25 -92 -55 -83 -56 -86 -66 -9 -40 24 9 53 17 65 19 12 3 22 5 22 6 0 2 3 3
130 35 93 24 174 37 235 37 46 1 124 -12 134 -22 6 -6 18 -10 28 -10 13 0 22
-15 34 -57 84 -303 145 -459 253 -658 49 -92 176 -293 191 -305 3 -3 33 -41
65 -85 71 -96 334 -361 425 -430 36 -27 67 -52 70 -56 12 -16 272 -181 345
-219 44 -23 84 -45 90 -50 5 -5 14 -8 18 -9 4 0 31 -11 60 -25 47 -22 258
-105 282 -111 6 -1 17 -5 25 -8 8 -4 43 -13 78 -22 34 -8 88 -21 120 -29 31
-8 73 -17 92 -20 19 -3 46 -8 60 -10 67 -12 177 -25 267 -30 34 -3 67 -7 72
-10 5 -4 12 -2 16 4 4 6 11 8 16 4 19 -11 208 -6 379 11 60 6 231 34 240 40 3
2 21 6 40 9 19 3 69 15 110 26 41 11 84 22 95 25 19 5 57 18 100 35 11 4 36
13 55 20 19 7 54 21 77 31 24 11 45 19 49 19 23 0 351 178 382 207 7 7 18 13
23 13 6 0 16 6 24 12 7 7 56 44 109 82 53 38 96 73 96 78 0 4 4 8 10 8 25 0
265 240 370 370 24 30 49 60 54 65 6 6 45 61 86 122 67 100 80 114 120 130 25
9 47 19 50 23 3 3 18 12 35 20 49 25 158 141 192 206 76 143 84 327 21 473
-14 32 -17 56 -13 81 9 46 14 70 20 100 3 14 8 45 11 70 3 25 8 54 10 65 18
87 24 442 10 575 -3 36 -7 72 -7 80 -2 25 -18 133 -24 160 -3 14 -7 39 -9 55
-3 17 -7 37 -10 45 -3 8 -8 26 -10 40 -12 60 -33 142 -46 175 -4 11 -23 63
-40 115 -37 108 -53 144 -121 285 -59 120 -91 179 -101 183 -5 2 -8 8 -8 13 0
20 -131 205 -255 359 -45 57 -275 280 -345 336 -41 32 -81 64 -88 71 -7 7 -26
20 -42 30 -17 9 -30 21 -30 25 0 4 -4 8 -9 8 -7 0 -101 59 -157 98 -27 18
-218 117 -294 150 -139 62 -335 129 -432 147 -10 2 -21 6 -26 8 -4 3 -25 8
-47 11 -22 4 -47 8 -55 11 -23 6 -70 15 -120 21 -25 3 -58 7 -75 10 -16 3 -50
8 -75 10 -48 5 -388 13 -392 9z"/>
</g>
</svg>
