<svg width="51" height="50" viewBox="0 0 51 50" fill="none" xmlns="http://www.w3.org/2000/svg">
<circle cx="25.5" cy="25" r="25" fill="#FFD52F"/>
<path d="M20.5538 13.9389C20.5427 13.9481 20.3018 14.1485 20.0614 14.4334L20.0996 14.4656L20.0614 14.4334C19.7015 14.8599 19.513 15.2703 19.513 15.6523C19.513 16.0686 19.6492 16.4206 19.8905 16.6687C20.1319 16.917 20.4749 17.0575 20.8809 17.0575C21.287 17.0575 21.6299 16.917 21.8714 16.6687C22.1127 16.4206 22.2489 16.0686 22.2489 15.6523C22.2489 15.2703 22.0604 14.8599 21.7005 14.4334L21.6623 14.4656L21.7005 14.4334C21.46 14.1485 21.2192 13.9481 21.2082 13.9389L21.2081 13.9389C21.0183 13.7818 20.7436 13.7818 20.5538 13.9389ZM20.5538 13.9389L20.5856 13.9774L20.5537 13.9389C20.5537 13.9389 20.5538 13.9389 20.5538 13.9389ZM29.9386 13.9389C29.9275 13.9481 29.6867 14.1485 29.4462 14.4334C29.0863 14.8599 28.8978 15.2703 28.8978 15.6523C28.8979 16.0686 29.0341 16.4206 29.2754 16.6687C29.5168 16.917 29.8598 17.0575 30.2658 17.0575C30.6718 17.0575 31.0148 16.917 31.2562 16.6687C31.4975 16.4206 31.6337 16.0686 31.6337 15.6523C31.6337 15.2703 31.4453 14.8599 31.0853 14.4334C30.8451 14.1488 30.6045 13.9484 30.593 13.9389M29.9386 13.9389L29.9705 13.9774L29.9386 13.9389C29.9386 13.9389 29.9386 13.9389 29.9386 13.9389ZM29.9386 13.9389C30.1284 13.7818 30.4032 13.7818 30.593 13.9389M30.593 13.9389L30.5611 13.9774L30.593 13.9389C30.593 13.9389 30.593 13.9389 30.593 13.9389ZM25.5734 15.98C26.0134 15.98 26.3847 15.8276 26.6461 15.5585C26.9073 15.2896 27.0549 14.908 27.0549 14.4563C27.0549 14.0406 26.8472 13.5905 26.4497 13.1195C26.1812 12.8013 25.9128 12.578 25.9006 12.5679C25.7107 12.4107 25.436 12.4107 25.2462 12.5679C25.234 12.578 24.9656 12.8013 24.6971 13.1195C24.2996 13.5905 24.0919 14.0406 24.0919 14.4563C24.0919 14.908 24.2395 15.2896 24.5007 15.5585C24.762 15.8276 25.1334 15.98 25.5734 15.98ZM25.574 13.6749C25.6886 13.8011 25.7979 13.9391 25.8808 14.0718C25.9737 14.2204 26.0287 14.355 26.0287 14.4563C26.0287 14.6371 25.9897 14.7592 25.9186 14.8362C25.8483 14.9124 25.7379 14.9538 25.5734 14.9538C25.4089 14.9538 25.2985 14.9124 25.2282 14.8362C25.1571 14.7592 25.1181 14.6371 25.1181 14.4563C25.1181 14.3559 25.1732 14.2216 25.2663 14.0727C25.3495 13.9399 25.4591 13.8015 25.574 13.6749ZM38.1837 34.3719H36.1145V25.5026C36.1145 24.0331 34.919 22.8376 33.4495 22.8376H31.4628V17.7265C31.4628 17.4431 31.2331 17.2134 30.9497 17.2134H29.5819C29.2985 17.2134 29.0688 17.4431 29.0688 17.7265V22.8376H26.8612V16.9795C26.8612 16.6961 26.6315 16.4664 26.3481 16.4664H24.7986C24.5152 16.4664 24.2855 16.6961 24.2855 16.9795V22.8376H22.078V17.7265C22.078 17.4431 21.8482 17.2134 21.5649 17.2134H20.197C19.9137 17.2134 19.6839 17.4431 19.6839 17.7265V22.8376H17.6973C16.2278 22.8376 15.0323 24.0331 15.0323 25.5026V34.3719H12.9631C12.6797 34.3719 12.45 34.6016 12.45 34.885V37.0369C12.45 37.3203 12.6797 37.55 12.9631 37.55H38.1837C38.4671 37.55 38.6968 37.3203 38.6968 37.0369V34.885C38.6968 34.6016 38.4671 34.3719 38.1837 34.3719ZM30.4367 18.2395V22.8376H30.095V18.2395H30.4367ZM25.3117 17.4925H25.8351V22.8376H25.3117V17.4925ZM21.0518 18.2395V22.8376H20.7101V18.2395H21.0518ZM37.6706 36.5239H13.4761V35.3981H37.6706L37.6706 36.5239ZM33.4495 23.8637C34.3531 23.8637 35.0883 24.599 35.0883 25.5026V34.3719H16.0585V25.5026C16.0585 24.599 16.7937 23.8637 17.6973 23.8637H33.4495ZM20.8809 15.0539C20.9694 15.1558 21.0508 15.2629 21.1122 15.3636C21.1833 15.4803 21.2227 15.5809 21.2227 15.6523C21.2227 15.7954 21.1934 15.8876 21.1415 15.9444C21.0906 16.0001 21.009 16.0314 20.881 16.0314C20.7529 16.0314 20.6713 16.0001 20.6204 15.9444C20.5686 15.8876 20.5392 15.7954 20.5392 15.6523C20.5392 15.5809 20.5786 15.4802 20.6497 15.3635C20.7111 15.2628 20.7925 15.1557 20.8809 15.0539ZM30.2658 15.0539C30.3543 15.1558 30.4357 15.2629 30.4971 15.3636C30.5682 15.4803 30.6076 15.5809 30.6076 15.6523C30.6076 15.7954 30.5782 15.8876 30.5264 15.9444C30.4755 16.0001 30.3939 16.0314 30.2658 16.0314C30.1378 16.0314 30.0561 16.0001 30.0052 15.9444C29.9534 15.8876 29.924 15.7954 29.924 15.6523C29.924 15.5809 29.9635 15.4802 30.0346 15.3635C30.096 15.2628 30.1774 15.1557 30.2658 15.0539Z" fill="#242424" stroke="#242424" stroke-width="0.1"/>
</svg>
