<svg width="51" height="50" viewBox="0 0 51 50" fill="none" xmlns="http://www.w3.org/2000/svg">
<circle cx="25.5" cy="25" r="25" fill="#FFD52F"/>
<path d="M20.9711 31.5764C22.8959 34.6999 24.2011 36.3294 24.8359 37.1221L24.8649 37.1582C25.2832 37.6806 26.0216 37.6806 26.44 37.1582L26.4689 37.1221C27.1038 36.3294 28.4089 34.6999 30.3338 31.5764L30.3338 31.5764L30.36 31.5339C30.3601 31.5336 30.3603 31.5334 30.3604 31.5331L30.3862 31.4913L30.3862 31.4913C31.3644 29.8995 32.3518 28.1672 33.0969 26.4136C33.8485 24.6446 34.3548 22.851 34.3548 21.156C34.3548 16.3676 30.4372 12.45 25.6489 12.45C20.8605 12.45 16.95 16.3668 16.95 21.156C16.95 22.851 17.4564 24.6446 18.208 26.4136C18.9531 28.1672 19.9404 29.8995 20.9186 31.4913L20.9186 31.4913L20.9438 31.5321C20.9441 31.5327 20.9445 31.5333 20.9448 31.5339L20.971 31.5764L20.9711 31.5764ZM22.0113 30.8767C21.036 29.2918 20.076 27.6068 19.3609 25.9237C18.6424 24.2327 18.2027 22.6154 18.2027 21.156C18.2027 17.0574 21.5536 13.7027 25.6489 13.7027C29.7454 13.7027 33.1021 17.0595 33.1021 21.156C33.1022 22.6154 32.6624 24.2327 31.9439 25.9237C31.2291 27.606 30.2697 29.2902 29.2949 30.8744C29.2943 30.8754 29.2937 30.8764 29.2931 30.8773C27.5427 33.7219 26.3188 35.3013 25.6524 36.1373C24.986 35.3013 23.7622 33.7219 22.0117 30.8773C22.0116 30.8771 22.0114 30.8769 22.0113 30.8767ZM25.6489 19.471C26.5885 19.471 27.3339 20.2163 27.3339 21.156C27.3339 22.0918 26.5923 22.8339 25.6489 22.8339C24.7092 22.8339 23.971 22.0956 23.971 21.156C23.971 20.2125 24.7131 19.471 25.6489 19.471ZM28.5866 21.156C28.5865 19.5245 27.2803 18.2183 25.6489 18.2183C24.0172 18.2183 22.7183 19.5247 22.7183 21.156C22.7183 22.7874 24.0174 24.0866 25.6489 24.0866C27.2802 24.0866 28.5866 22.7876 28.5866 21.156Z" fill="#242424" stroke="#242424" stroke-width="0.1"/>
</svg>
