<svg width="51" height="50" viewBox="0 0 51 50" fill="none" xmlns="http://www.w3.org/2000/svg">
<circle cx="25.5" cy="25" r="25" fill="#FFD52F"/>
<path fill-rule="evenodd" clip-rule="evenodd" d="M25.065 14.6724C28.3824 12.2045 33.1163 12.4627 36.1355 15.4819C39.4609 18.8072 39.4608 24.1704 36.2067 27.4961L36.1502 27.5538L36.0806 27.5886L36.0781 27.591L36.068 27.601L26.0461 37.623C25.7712 37.8978 25.4379 38 25.0987 38C24.7595 38 24.4262 37.8978 24.1514 37.623L14.1421 27.6137C14.0873 27.5846 14.0496 27.5518 14.0328 27.5367C14.0174 27.5228 14.0022 27.5075 13.996 27.5013L13.9945 27.4998C10.6685 24.1738 10.6685 18.8078 13.9945 15.4819C17.0137 12.4627 21.7476 12.2045 25.065 14.6724ZM24.7608 15.6542C21.811 13.2437 17.433 13.4032 14.6744 16.1618C11.7594 19.0768 11.7244 23.7554 14.5693 26.7128H14.601L24.8313 36.9431C24.8939 37.0057 24.9655 37.0385 25.0987 37.0385C25.2319 37.0385 25.3036 37.0057 25.3662 36.9431L35.3891 26.9201C35.4233 26.886 35.478 26.8313 35.5653 26.7763C38.4066 23.8223 38.391 19.0971 35.4556 16.1618C32.697 13.4032 28.319 13.2437 25.3692 15.6542L25.065 15.9028L24.7608 15.6542ZM14.3956 26.7128C14.3956 26.7128 14.3967 26.7128 14.3988 26.7128L14.3956 26.7128Z" fill="#242424" stroke="#242424" stroke-width="0.5"/>
</svg>
