<svg width="51" height="50" viewBox="0 0 51 50" fill="none" xmlns="http://www.w3.org/2000/svg">
<circle cx="25.5" cy="25" r="25" fill="#FFD52F"/>
<path d="M25.5652 12.9295L25.5552 12.9315L25.5458 12.9354L4.71144 21.7321C4.49614 21.8227 4.4 22.0465 4.4 22.2511C4.4 22.4557 4.49614 22.6795 4.71144 22.7701L7.60177 23.9886V29.2776C7.32407 29.46 7.13878 29.7698 7.13878 30.1291C7.13878 30.6958 7.59816 31.1551 8.16476 31.1551C8.73136 31.1551 9.19074 30.6958 9.19074 30.1291C9.19074 29.7698 9.00545 29.46 8.72775 29.2776V24.4636L12.2317 25.9418V32.9071C12.2317 33.6696 12.7417 34.3078 13.4555 34.8805C14.1741 35.457 15.1661 36.0004 16.3754 36.4727C18.794 37.4174 22.0979 38.1 25.7583 38.1C29.4187 38.1 32.7226 37.4174 35.1413 36.4727C36.3505 36.0004 37.3425 35.457 38.0611 34.8805C38.7749 34.3078 39.285 33.6696 39.285 32.9071V25.9418L46.8052 22.7701C47.0205 22.6795 47.1166 22.4557 47.1166 22.2511C47.1166 22.0465 47.0205 21.8227 46.8052 21.7321L25.9708 12.9354L25.9709 12.9352L25.9641 12.9329C25.7931 12.8748 25.6533 12.9085 25.5878 12.9243C25.5789 12.9264 25.5713 12.9283 25.5652 12.9295ZM13.3576 26.4169L25.5458 31.5668L25.5472 31.5674C25.6813 31.6216 25.8354 31.6215 25.9694 31.5674L25.9708 31.5668L38.159 26.4169V32.9071C38.159 33.0063 38.1108 33.1592 37.9814 33.3522C37.8534 33.543 37.6512 33.7651 37.3572 34.001C36.7675 34.4742 35.8697 34.9754 34.7357 35.4183C32.4679 36.3041 29.2797 36.974 25.7583 36.974C22.2369 36.974 19.0487 36.3041 16.7809 35.4183C15.6469 34.9754 14.7492 34.4742 14.1594 34.001L14.0968 34.079L14.1594 34.001C13.8654 33.7651 13.6632 33.543 13.5352 33.3522C13.4058 33.1592 13.3576 33.0063 13.3576 32.9071V26.4169ZM6.36729 22.2583L25.7583 14.0621L45.1493 22.2583L25.7583 30.4402L6.36729 22.2583Z" fill="#242424" stroke="#242424" stroke-width="0.2"/>
</svg>
