<svg width="51" height="50" viewBox="0 0 51 50" fill="none" xmlns="http://www.w3.org/2000/svg">
<circle cx="25.5" cy="25" r="25" fill="#FFD52F"/>
<path d="M20.2717 17.4172H20.3717V17.3172V15.5878C20.3717 14.4457 21.2914 13.5259 22.4335 13.5259H29.4178C30.5599 13.5259 31.4797 14.4457 31.4797 15.5878V17.3172V17.4172H31.5797H36.4687C38.5753 17.4172 40.2933 19.1352 40.2933 21.2418V32.6495C40.2933 34.7561 38.5753 36.4741 36.4687 36.4741H14.8505C12.7439 36.4741 11.0259 34.7561 11.0259 32.6495V21.2418C11.0259 19.1352 12.7439 17.4172 14.8505 17.4172H20.2717ZM21.8346 17.3172V17.4172H21.9346H29.9167H30.0167V17.3172V15.5878C30.0167 15.2665 29.7391 14.9889 29.4178 14.9889H22.4335C22.1122 14.9889 21.8346 15.2665 21.8346 15.5878V17.3172ZM36.4687 16.2913H32.6056V15.5878C32.6056 13.8238 31.1818 12.4 29.4178 12.4H22.4335C20.6696 12.4 19.2457 13.8238 19.2457 15.5878V16.2913H14.8505C12.122 16.2913 9.9 18.5133 9.9 21.2418V32.6495C9.9 35.378 12.122 37.6 14.8505 37.6H36.4687C39.1971 37.6 41.4192 35.378 41.4192 32.6495V21.2418C41.4192 18.5133 39.1971 16.2913 36.4687 16.2913ZM28.8908 16.2913H22.9605V16.1148H28.8908V16.2913Z" fill="#242424" stroke="#242424" stroke-width="0.2"/>
</svg>
