<svg width="51.00000000000001" height="50" xmlns="http://www.w3.org/2000/svg" fill="none">
 <g>
  <title>Layer 1</title>
  <circle id="svg_1" fill="#FFD52F" r="25" cy="24.91416" cx="25.2861"/>
  <path stroke="null" id="svg_2" fill="#242424" d="m25.2487,38c0,0.2761 0.2239,0.5 0.5,0.5c0.2762,0 0.5,-0.2239 0.5,-0.5l-1,0zm1,-12.4975c0,-0.2761 -0.2238,-0.5 -0.5,-0.5c-0.2761,0 -0.5,0.2239 -0.5,0.5l1,0zm5.2488,-6.2538c0,3.175 -2.5738,5.7488 -5.7488,5.7488l0,1c3.7273,0 6.7488,-3.0215 6.7488,-6.7488l-1,0zm-5.7488,5.7488c-3.1749,0 -5.7487,-2.5738 -5.7487,-5.7488l-1,0c0,3.7273 3.0215,6.7488 6.7487,6.7488l0,-1zm-5.7487,-5.7488c0,-3.1749 2.5738,-5.7487 5.7487,-5.7487l0,-1c-3.7272,0 -6.7487,3.0215 -6.7487,6.7487l1,0zm5.7487,-5.7487c3.175,0 5.7488,2.5738 5.7488,5.7487l1,0c0,-3.7272 -3.0215,-6.7487 -6.7488,-6.7487l0,1zm0.5,24.5l0,-12.4975l-1,0l0,12.4975l1,0z" transform="rotate(-148 25.7488 25.5)"/>
  <line fill="none" x1="23.94206" y1="17.3176" x2="32.78326" y2="15.34335" id="svg_6"/>
  <rect transform="rotate(-28 28.2968 16.9786)" id="svg_3" height="0.10695" width="10.69519" y="16.92513" x="22.94919" stroke="#000" fill="#fff"/>
  <rect transform="rotate(-28 28.2968 16.9786)" id="svg_4" height="0.10695" width="10.69519" y="16.92513" x="22.94919" stroke="#000" fill="#fff"/>
  <line transform="rotate(87 33.3968 19.5979)" stroke="#000" id="svg_7" y2="19.59789" x2="38.52856" y1="19.59789" x1="28.26502" fill="none"/>
 </g>

</svg>